<svg width="321" height="40" viewBox="0 0 321 40" fill="none" xmlns="http://www.w3.org/2000/svg">
<rect x="306.595" y="8.4801" width="7.38875" height="13.6785" rx="3.69438" stroke="black" stroke-width="1.76"/>
<mask id="mask0_1635_3208" style="mask-type:alpha" maskUnits="userSpaceOnUse" x="299" y="19" width="22" height="15">
<rect x="299" y="19.04" width="22" height="14.96" fill="#D9D9D9"/>
</mask>
<g mask="url(#mask0_1635_3208)">
<rect x="301.442" y="-0.669072" width="17.6811" height="27.4017" rx="8.84055" stroke="black" stroke-width="1.76"/>
</g>
<path d="M310.285 27.041V31.3295" stroke="black" stroke-width="1.76" stroke-linecap="round" stroke-linejoin="round"/>
<path d="M0 17.4254H21.1578" stroke="black" stroke-width="1.69262"/>
<path d="M10.5781 6.84644L10.5781 28.0042" stroke="black" stroke-width="1.69262"/>
<mask id="path-7-inside-1_1635_3208" fill="white">
<path fill-rule="evenodd" clip-rule="evenodd" d="M38.118 6C37.3916 6 36.7397 6.44604 36.4767 7.1231L35.7727 8.93481H32.3517C31.0551 8.93481 30.0039 9.98597 30.0039 11.2826V27.7174C30.0039 29.0141 31.0551 30.0653 32.3517 30.0653H51.1344C52.431 30.0653 53.4822 29.0141 53.4822 27.7174V11.2826C53.4822 9.98597 52.431 8.93481 51.1344 8.93481H47.7131L47.0091 7.1231C46.746 6.44604 46.0942 6 45.3678 6H38.118Z"/>
</mask>
<path d="M36.4767 7.1231L34.899 6.51005L34.899 6.51005L36.4767 7.1231ZM35.7727 8.93481V10.6274H36.9309L37.3504 9.54786L35.7727 8.93481ZM47.7131 8.93481L46.1354 9.54786L46.5549 10.6274H47.7131V8.93481ZM47.0091 7.1231L45.4314 7.73615L45.4314 7.73615L47.0091 7.1231ZM38.0544 7.73615C38.0645 7.70991 38.0898 7.69262 38.118 7.69262V4.30738C36.6934 4.30738 35.4149 5.18216 34.899 6.51005L38.0544 7.73615ZM37.3504 9.54786L38.0544 7.73615L34.899 6.51005L34.195 8.32176L37.3504 9.54786ZM32.3517 10.6274H35.7727V7.24219H32.3517V10.6274ZM31.6965 11.2826C31.6965 10.9208 31.9899 10.6274 32.3517 10.6274V7.24219C30.1203 7.24219 28.3113 9.05117 28.3113 11.2826H31.6965ZM31.6965 27.7174V11.2826H28.3113V27.7174H31.6965ZM32.3517 28.3726C31.9899 28.3726 31.6965 28.0793 31.6965 27.7174H28.3113C28.3113 29.9489 30.1203 31.7579 32.3517 31.7579V28.3726ZM51.1344 28.3726H32.3517V31.7579H51.1344V28.3726ZM51.7896 27.7174C51.7896 28.0793 51.4962 28.3726 51.1344 28.3726V31.7579C53.3658 31.7579 55.1748 29.9489 55.1748 27.7174H51.7896ZM51.7896 11.2826V27.7174H55.1748V11.2826H51.7896ZM51.1344 10.6274C51.4962 10.6274 51.7896 10.9208 51.7896 11.2826H55.1748C55.1748 9.05116 53.3658 7.24219 51.1344 7.24219V10.6274ZM47.7131 10.6274H51.1344V7.24219H47.7131V10.6274ZM45.4314 7.73615L46.1354 9.54786L49.2908 8.32176L48.5868 6.51005L45.4314 7.73615ZM45.3678 7.69262C45.3959 7.69262 45.4212 7.70991 45.4314 7.73615L48.5868 6.51005C48.0708 5.18216 46.7924 4.30738 45.3678 4.30738V7.69262ZM38.118 7.69262H45.3678V4.30738H38.118V7.69262Z" fill="black" mask="url(#path-7-inside-1_1635_3208)"/>
<circle cx="41.4501" cy="19.2067" r="4.14282" stroke="black" stroke-width="1.69262"/>
<rect x="66.7838" y="6.84643" width="22.3726" height="22.3726" rx="1.50152" stroke="black" stroke-width="1.69262"/>
<path d="M66.8164 20.3807L72.3925 14.8046L79.7295 22.1415L83.2512 18.6198L89.1208 24.4894" stroke="black" stroke-width="1.69262" stroke-linejoin="round"/>
<rect x="104" width="187" height="40" rx="20" fill="#F5F5F5"/>
<rect x="104.5" y="0.5" width="186" height="39" rx="19.5" stroke="black" stroke-opacity="0.1"/>
<path d="M120.122 25H118.46L123.267 11.9091H124.903L129.71 25H128.048L124.136 13.9801H124.034L120.122 25ZM120.736 19.8864H127.435V21.2926H120.736V19.8864ZM134.434 25.2301C133.812 25.2301 133.247 25.1129 132.74 24.8786C132.233 24.6399 131.83 24.2969 131.532 23.8494C131.234 23.3977 131.085 22.8523 131.085 22.2131C131.085 21.6506 131.195 21.1946 131.417 20.8452C131.638 20.4915 131.935 20.2145 132.305 20.0142C132.676 19.8139 133.085 19.6648 133.533 19.5668C133.984 19.4645 134.438 19.3835 134.894 19.3239C135.491 19.2472 135.974 19.1896 136.345 19.1513C136.72 19.1087 136.993 19.0384 137.163 18.9403C137.338 18.8423 137.425 18.6719 137.425 18.429V18.3778C137.425 17.7472 137.253 17.2571 136.908 16.9077C136.567 16.5582 136.049 16.3835 135.354 16.3835C134.634 16.3835 134.07 16.5412 133.661 16.8565C133.251 17.1719 132.964 17.5085 132.798 17.8665L131.366 17.3551C131.621 16.7585 131.962 16.294 132.388 15.9616C132.819 15.625 133.288 15.3906 133.795 15.2585C134.306 15.1222 134.809 15.054 135.303 15.054C135.619 15.054 135.981 15.0923 136.39 15.169C136.803 15.2415 137.202 15.3928 137.585 15.6229C137.973 15.853 138.295 16.2003 138.55 16.6648C138.806 17.1293 138.934 17.7514 138.934 18.5312V25H137.425V23.6705H137.349C137.246 23.8835 137.076 24.1115 136.837 24.3544C136.599 24.5973 136.281 24.804 135.885 24.9744C135.489 25.1449 135.005 25.2301 134.434 25.2301ZM134.664 23.875C135.261 23.875 135.763 23.7578 136.173 23.5234C136.586 23.2891 136.897 22.9865 137.106 22.6158C137.319 22.245 137.425 21.8551 137.425 21.446V20.0653C137.362 20.142 137.221 20.2124 137.004 20.2763C136.79 20.3359 136.543 20.3892 136.262 20.4361C135.985 20.4787 135.714 20.517 135.45 20.5511C135.19 20.581 134.979 20.6065 134.817 20.6278C134.425 20.679 134.059 20.7621 133.718 20.8771C133.381 20.9879 133.109 21.1562 132.9 21.3821C132.695 21.6037 132.593 21.9062 132.593 22.2898C132.593 22.8139 132.787 23.2102 133.175 23.4787C133.567 23.7429 134.063 23.875 134.664 23.875Z" fill="#949494"/>
<path d="M267 21C267.517 22 268.862 24 271.345 24C274.138 24 275.379 22 276 21" stroke="#777777" stroke-width="1.5" stroke-linecap="round" stroke-linejoin="round"/>
<circle cx="268" cy="17" r="1" fill="#777777"/>
<circle cx="275" cy="17" r="1" fill="#777777"/>
<circle cx="271.5" cy="19.5" r="10.75" stroke="#777777" stroke-width="1.5"/>
</svg>
