<svg width="353" height="40" viewBox="0 0 353 40" fill="none" xmlns="http://www.w3.org/2000/svg">
<rect x="338.595" y="8.4801" width="7.38875" height="13.6785" rx="3.69438" stroke="black" stroke-width="1.76"/>
<mask id="mask0_1635_3208" style="mask-type:alpha" maskUnits="userSpaceOnUse" x="331" y="19" width="22" height="15">
<rect x="331" y="19.04" width="22" height="14.96" fill="#D9D9D9"/>
</mask>
<g mask="url(#mask0_1635_3208)">
<rect x="333.442" y="-0.669072" width="17.6811" height="27.4017" rx="8.84055" stroke="black" stroke-width="1.76"/>
</g>
<path d="M342.285 27.041V31.3295" stroke="black" stroke-width="1.76" stroke-linecap="round" stroke-linejoin="round"/>
<path d="M0 17.4254H21.1578" stroke="black" stroke-width="1.69262"/>
<path d="M10.5781 6.84644L10.5781 28.0042" stroke="black" stroke-width="1.69262"/>
<mask id="path-7-inside-1_1635_3208" fill="white">
<path fill-rule="evenodd" clip-rule="evenodd" d="M41.118 6C40.3916 6 39.7397 6.44604 39.4767 7.1231L38.7727 8.93481H35.3517C34.0551 8.93481 33.0039 9.98597 33.0039 11.2826V27.7174C33.0039 29.0141 34.0551 30.0653 35.3517 30.0653H54.1344C55.431 30.0653 56.4822 29.0141 56.4822 27.7174V11.2826C56.4822 9.98597 55.431 8.93481 54.1344 8.93481H50.7131L50.0091 7.1231C49.746 6.44604 49.0942 6 48.3678 6H41.118Z"/>
</mask>
<path d="M39.4767 7.1231L37.899 6.51005L37.899 6.51005L39.4767 7.1231ZM38.7727 8.93481V10.6274H39.9309L40.3504 9.54786L38.7727 8.93481ZM50.7131 8.93481L49.1354 9.54786L49.5549 10.6274H50.7131V8.93481ZM50.0091 7.1231L48.4314 7.73615L48.4314 7.73615L50.0091 7.1231ZM41.0544 7.73615C41.0645 7.70991 41.0898 7.69262 41.118 7.69262V4.30738C39.6934 4.30738 38.4149 5.18216 37.899 6.51005L41.0544 7.73615ZM40.3504 9.54786L41.0544 7.73615L37.899 6.51005L37.195 8.32176L40.3504 9.54786ZM35.3517 10.6274H38.7727V7.24219H35.3517V10.6274ZM34.6965 11.2826C34.6965 10.9208 34.9899 10.6274 35.3517 10.6274V7.24219C33.1203 7.24219 31.3113 9.05117 31.3113 11.2826H34.6965ZM34.6965 27.7174V11.2826H31.3113V27.7174H34.6965ZM35.3517 28.3726C34.9899 28.3726 34.6965 28.0793 34.6965 27.7174H31.3113C31.3113 29.9489 33.1203 31.7579 35.3517 31.7579V28.3726ZM54.1344 28.3726H35.3517V31.7579H54.1344V28.3726ZM54.7896 27.7174C54.7896 28.0793 54.4962 28.3726 54.1344 28.3726V31.7579C56.3658 31.7579 58.1748 29.9489 58.1748 27.7174H54.7896ZM54.7896 11.2826V27.7174H58.1748V11.2826H54.7896ZM54.1344 10.6274C54.4962 10.6274 54.7896 10.9208 54.7896 11.2826H58.1748C58.1748 9.05116 56.3658 7.24219 54.1344 7.24219V10.6274ZM50.7131 10.6274H54.1344V7.24219H50.7131V10.6274ZM48.4314 7.73615L49.1354 9.54786L52.2908 8.32176L51.5868 6.51005L48.4314 7.73615ZM48.3678 7.69262C48.3959 7.69262 48.4212 7.70991 48.4314 7.73615L51.5868 6.51005C51.0708 5.18216 49.7924 4.30738 48.3678 4.30738V7.69262ZM41.118 7.69262H48.3678V4.30738H41.118V7.69262Z" fill="black" mask="url(#path-7-inside-1_1635_3208)"/>
<circle cx="44.4501" cy="19.2067" r="4.14282" stroke="black" stroke-width="1.69262"/>
<rect x="72.7838" y="6.84643" width="22.3726" height="22.3726" rx="1.50152" stroke="black" stroke-width="1.69262"/>
<path d="M72.8164 20.3807L78.3925 14.8046L85.7295 22.1415L89.2512 18.6198L95.1208 24.4894" stroke="black" stroke-width="1.69262" stroke-linejoin="round"/>
<rect x="110" width="212" height="40" rx="20" fill="#F5F5F5"/>
<rect x="110.5" y="0.5" width="211" height="39" rx="19.5" stroke="black" stroke-opacity="0.1"/>
<path d="M127.122 25H125.46L130.267 11.9091H131.903L136.71 25H135.048L131.136 13.9801H131.034L127.122 25ZM127.736 19.8864H134.435V21.2926H127.736V19.8864ZM141.434 25.2301C140.812 25.2301 140.247 25.1129 139.74 24.8786C139.233 24.6399 138.83 24.2969 138.532 23.8494C138.234 23.3977 138.085 22.8523 138.085 22.2131C138.085 21.6506 138.195 21.1946 138.417 20.8452C138.638 20.4915 138.935 20.2145 139.305 20.0142C139.676 19.8139 140.085 19.6648 140.533 19.5668C140.984 19.4645 141.438 19.3835 141.894 19.3239C142.491 19.2472 142.974 19.1896 143.345 19.1513C143.72 19.1087 143.993 19.0384 144.163 18.9403C144.338 18.8423 144.425 18.6719 144.425 18.429V18.3778C144.425 17.7472 144.253 17.2571 143.908 16.9077C143.567 16.5582 143.049 16.3835 142.354 16.3835C141.634 16.3835 141.07 16.5412 140.661 16.8565C140.251 17.1719 139.964 17.5085 139.798 17.8665L138.366 17.3551C138.621 16.7585 138.962 16.294 139.388 15.9616C139.819 15.625 140.288 15.3906 140.795 15.2585C141.306 15.1222 141.809 15.054 142.303 15.054C142.619 15.054 142.981 15.0923 143.39 15.169C143.803 15.2415 144.202 15.3928 144.585 15.6229C144.973 15.853 145.295 16.2003 145.55 16.6648C145.806 17.1293 145.934 17.7514 145.934 18.5312V25H144.425V23.6705H144.349C144.246 23.8835 144.076 24.1115 143.837 24.3544C143.599 24.5973 143.281 24.804 142.885 24.9744C142.489 25.1449 142.005 25.2301 141.434 25.2301ZM141.664 23.875C142.261 23.875 142.763 23.7578 143.173 23.5234C143.586 23.2891 143.897 22.9865 144.106 22.6158C144.319 22.245 144.425 21.8551 144.425 21.446V20.0653C144.362 20.142 144.221 20.2124 144.004 20.2763C143.79 20.3359 143.543 20.3892 143.262 20.4361C142.985 20.4787 142.714 20.517 142.45 20.5511C142.19 20.581 141.979 20.6065 141.817 20.6278C141.425 20.679 141.059 20.7621 140.718 20.8771C140.381 20.9879 140.109 21.1562 139.9 21.3821C139.695 21.6037 139.593 21.9062 139.593 22.2898C139.593 22.8139 139.787 23.2102 140.175 23.4787C140.567 23.7429 141.063 23.875 141.664 23.875Z" fill="#949494"/>
<path d="M298 21C298.517 22 299.862 24 302.345 24C305.138 24 306.379 22 307 21" stroke="#777777" stroke-width="1.5" stroke-linecap="round" stroke-linejoin="round"/>
<circle cx="299" cy="17" r="1" fill="#777777"/>
<circle cx="306" cy="17" r="1" fill="#777777"/>
<circle cx="302.5" cy="19.5" r="10.75" stroke="#777777" stroke-width="1.5"/>
</svg>
