<svg width="516" height="344" viewBox="0 0 516 344" fill="none" xmlns="http://www.w3.org/2000/svg">
<path d="M7.61719 5.27148H17.334V68.4551H53.6621V77H7.61719V5.27148ZM65.4785 5.27148H75.293V77H65.4785V5.27148ZM91.1133 5.27148H102.588L138.818 63.377V5.27148H148.047V77H137.158L100.391 18.9434V77H91.1133V5.27148ZM164.307 5.27148H216.602V14.0605H173.779V35.8379H213.379V44.1387H173.779V68.4551H217.334V77H164.307V5.27148ZM288.135 3.31836C297.217 3.31836 304.264 5.71094 309.277 10.4961C314.29 15.2812 317.074 20.7174 317.627 26.8047H308.154C307.08 22.1823 304.932 18.5202 301.709 15.8184C298.519 13.1165 294.027 11.7656 288.232 11.7656C281.169 11.7656 275.456 14.2559 271.094 19.2363C266.764 24.1842 264.6 31.7852 264.6 42.0391C264.6 50.4375 266.553 57.2572 270.459 62.498C274.398 67.7064 280.257 70.3105 288.037 70.3105C295.199 70.3105 300.651 67.5599 304.395 62.0586C306.38 59.1615 307.861 55.3529 308.838 50.6328H318.311C317.464 58.1849 314.665 64.5163 309.912 69.627C304.215 75.7793 296.533 78.8555 286.865 78.8555C278.532 78.8555 271.533 76.3327 265.869 71.2871C258.415 64.6139 254.688 54.3112 254.688 40.3789C254.688 29.7995 257.487 21.1243 263.086 14.3535C269.141 6.99674 277.49 3.31836 288.135 3.31836ZM330.42 5.27148H340.234V34.9102H377.539V5.27148H387.354V77H377.539V43.4551H340.234V77H330.42V5.27148ZM439.258 47.6055L428.369 15.916L416.797 47.6055H439.258ZM423.291 5.27148H434.277L460.303 77H449.658L442.383 55.5156H414.014L406.25 77H396.289L423.291 5.27148ZM513.916 5.27148V13.8164H489.746V77H479.883V13.8164H455.713V5.27148H513.916ZM12.3535 91.2715L25.8789 149.621L42.0898 91.2715H52.6367L68.8477 149.621L82.373 91.2715H93.0176L74.1699 163H63.9648L47.4121 103.527L30.7617 163H20.5566L1.80664 91.2715H12.3535ZM104.248 91.2715H114.062V163H104.248V91.2715ZM157.422 154.699C160.71 154.699 163.411 154.357 165.527 153.674C169.303 152.404 172.396 149.963 174.805 146.35C176.725 143.452 178.109 139.742 178.955 135.217C179.443 132.515 179.688 130.008 179.688 127.697C179.688 118.811 177.913 111.91 174.365 106.994C170.85 102.079 165.169 99.6211 157.324 99.6211H140.088V154.699H157.422ZM130.322 91.2715H159.375C169.238 91.2715 176.888 94.7708 182.324 101.77C187.174 108.085 189.6 116.174 189.6 126.037C189.6 133.654 188.167 140.539 185.303 146.691C180.257 157.564 171.582 163 159.277 163H130.322V91.2715ZM233.154 89.416C239.893 89.416 245.719 90.7181 250.635 93.3223C257.764 97.0658 262.126 103.625 263.721 113H254.102C252.93 107.759 250.505 103.951 246.826 101.574C243.148 99.1654 238.509 97.9609 232.91 97.9609C226.27 97.9609 220.671 100.451 216.113 105.432C211.589 110.412 209.326 117.834 209.326 127.697C209.326 136.226 211.198 143.176 214.941 148.547C218.685 153.885 224.788 156.555 233.252 156.555C239.73 156.555 245.085 154.683 249.316 150.939C253.581 147.163 255.762 141.076 255.859 132.678H233.398V124.621H264.893V163H258.643L256.299 153.771C253.011 157.385 250.098 159.891 247.559 161.291C243.294 163.7 237.874 164.904 231.299 164.904C222.803 164.904 215.495 162.154 209.375 156.652C202.702 149.751 199.365 140.279 199.365 128.234C199.365 116.223 202.62 106.669 209.131 99.5723C215.316 92.8014 223.324 89.416 233.154 89.416ZM280.908 91.2715H333.203V100.061H290.381V121.838H329.98V130.139H290.381V154.455H333.936V163H280.908V91.2715ZM398.877 91.2715V99.8164H374.707V163H364.844V99.8164H340.674V91.2715H398.877ZM38.5742 175.318C51.237 175.318 60.612 179.387 66.6992 187.525C71.4518 193.873 73.8281 201.995 73.8281 211.891C73.8281 222.6 71.11 231.503 65.6738 238.6C59.2936 246.933 50.1953 251.1 38.3789 251.1C27.3438 251.1 18.6686 247.454 12.3535 240.162C6.72201 233.131 3.90625 224.244 3.90625 213.502C3.90625 203.801 6.3151 195.501 11.1328 188.6C17.3177 179.745 26.4648 175.318 38.5742 175.318ZM39.5508 242.408C48.112 242.408 54.2969 239.348 58.1055 233.229C61.9466 227.076 63.8672 220.012 63.8672 212.037C63.8672 203.606 61.6536 196.819 57.2266 191.676C52.832 186.533 46.8099 183.961 39.1602 183.961C31.7383 183.961 25.6836 186.516 20.9961 191.627C16.3086 196.705 13.9648 204.208 13.9648 214.137C13.9648 222.079 15.9668 228.785 19.9707 234.254C24.0072 239.69 30.5339 242.408 39.5508 242.408ZM85.4492 177.271H96.9238L133.154 235.377V177.271H142.383V249H131.494L94.7266 190.943V249H85.4492V177.271ZM178.223 177.271H189.551L210.156 211.744L230.762 177.271H242.139L215.039 220.094V249H205.322V220.094L178.223 177.271ZM342.773 177.271V221.607C342.773 226.816 343.75 231.145 345.703 234.596C348.6 239.804 353.483 242.408 360.352 242.408C368.587 242.408 374.186 239.592 377.148 233.961C378.743 230.901 379.541 226.783 379.541 221.607V177.271H389.404V217.555C389.404 226.376 388.216 233.163 385.84 237.916C381.478 246.575 373.242 250.904 361.133 250.904C349.023 250.904 340.804 246.575 336.475 237.916C334.098 233.163 332.91 226.376 332.91 217.555V177.271H342.773ZM437.842 210.133C442.399 210.133 445.996 209.221 448.633 207.398C451.302 205.576 452.637 202.288 452.637 197.535C452.637 192.424 450.781 188.941 447.07 187.086C445.085 186.109 442.432 185.621 439.111 185.621H415.381V210.133H437.842ZM405.664 177.271H438.867C444.336 177.271 448.844 178.069 452.393 179.664C459.131 182.724 462.5 188.372 462.5 196.607C462.5 200.904 461.605 204.42 459.814 207.154C458.057 209.889 455.583 212.086 452.393 213.746C455.192 214.885 457.292 216.383 458.691 218.238C460.124 220.094 460.921 223.105 461.084 227.271L461.426 236.891C461.523 239.625 461.751 241.66 462.109 242.994C462.695 245.273 463.737 246.738 465.234 247.389V249H453.32C452.995 248.382 452.734 247.584 452.539 246.607C452.344 245.631 452.181 243.743 452.051 240.943L451.465 228.98C451.237 224.293 449.495 221.152 446.24 219.557C444.385 218.678 441.471 218.238 437.5 218.238H415.381V249H405.664V177.271ZM12.3535 263.271L25.8789 321.621L42.0898 263.271H52.6367L68.8477 321.621L82.373 263.271H93.0176L74.1699 335H63.9648L47.4121 275.527L30.7617 335H20.5566L1.80664 263.271H12.3535ZM102.979 263.271H155.273V272.061H112.451V293.838H152.051V302.139H112.451V326.455H156.006V335H102.979V263.271ZM195.703 293.594C199.805 293.594 202.995 293.024 205.273 291.885C208.854 290.094 210.645 286.872 210.645 282.217C210.645 277.529 208.74 274.372 204.932 272.744C202.783 271.833 199.593 271.377 195.361 271.377H178.027V293.594H195.703ZM198.975 326.699C204.932 326.699 209.18 324.974 211.719 321.523C213.314 319.342 214.111 316.706 214.111 313.613C214.111 308.405 211.784 304.857 207.129 302.969C204.655 301.96 201.383 301.455 197.314 301.455H178.027V326.699H198.975ZM168.506 263.271H199.316C207.715 263.271 213.688 265.778 217.236 270.791C219.32 273.753 220.361 277.171 220.361 281.045C220.361 285.57 219.076 289.281 216.504 292.178C215.169 293.708 213.249 295.107 210.742 296.377C214.421 297.777 217.171 299.355 218.994 301.113C222.217 304.238 223.828 308.551 223.828 314.053C223.828 318.675 222.38 322.858 219.482 326.602C215.153 332.201 208.268 335 198.828 335H168.506V263.271ZM241.797 311.855C242.025 315.924 242.985 319.229 244.678 321.768C247.9 326.52 253.581 328.896 261.719 328.896C265.365 328.896 268.685 328.376 271.68 327.334C277.474 325.316 280.371 321.702 280.371 316.494C280.371 312.588 279.15 309.805 276.709 308.145C274.235 306.517 270.361 305.101 265.088 303.896L255.371 301.699C249.023 300.267 244.531 298.688 241.895 296.963C237.337 293.968 235.059 289.492 235.059 283.535C235.059 277.09 237.288 271.8 241.748 267.666C246.208 263.532 252.523 261.465 260.693 261.465C268.213 261.465 274.593 263.288 279.834 266.934C285.107 270.547 287.744 276.341 287.744 284.316H278.613C278.125 280.475 277.083 277.529 275.488 275.479C272.526 271.735 267.497 269.863 260.4 269.863C254.671 269.863 250.553 271.068 248.047 273.477C245.54 275.885 244.287 278.685 244.287 281.875C244.287 285.391 245.752 287.962 248.682 289.59C250.602 290.632 254.948 291.934 261.719 293.496L271.777 295.791C276.628 296.898 280.371 298.411 283.008 300.332C287.565 303.685 289.844 308.551 289.844 314.932C289.844 322.874 286.947 328.555 281.152 331.973C275.391 335.391 268.685 337.1 261.035 337.1C252.116 337.1 245.133 334.821 240.088 330.264C235.042 325.739 232.568 319.603 232.666 311.855H241.797ZM304.346 263.271H314.16V335H304.346V263.271ZM382.178 263.271V271.816H358.008V335H348.145V271.816H323.975V263.271H382.178ZM392.041 263.271H444.336V272.061H401.514V293.838H441.113V302.139H401.514V326.455H445.068V335H392.041V263.271Z" fill="#06C755"/>
<g clip-path="url(#clip0_1635_3202)">
<g clip-path="url(#clip1_1635_3202)">
<path d="M281.5 254C303.868 254 322 235.868 322 213.5C322 191.132 303.868 173 281.5 173C259.132 173 241 191.132 241 213.5C241 235.868 259.132 254 281.5 254Z" fill="#06C755"/>
<path d="M308.51 211.141C308.51 199.041 296.38 189.2 281.474 189.2C266.567 189.2 254.438 199.044 254.438 211.141C254.438 221.987 264.056 231.069 277.049 232.788C277.93 232.978 279.127 233.368 279.431 234.122C279.704 234.806 279.608 235.876 279.52 236.567C279.52 236.567 279.203 238.476 279.135 238.881C279.016 239.564 278.591 241.554 281.476 240.339C284.362 239.124 297.046 231.171 302.719 224.643C306.637 220.344 308.515 215.986 308.515 211.143L308.51 211.141Z" fill="white"/>
<path d="M299.511 218.127C299.797 218.127 300.027 217.897 300.027 217.611V215.692C300.027 215.409 299.795 215.176 299.511 215.176H294.35V213.184H299.511C299.797 213.184 300.027 212.953 300.027 212.667V210.751C300.027 210.468 299.795 210.235 299.511 210.235H294.35V208.243H299.511C299.797 208.243 300.027 208.012 300.027 207.726V205.81C300.027 205.527 299.795 205.294 299.511 205.294H291.915C291.629 205.294 291.398 205.524 291.398 205.81V205.82V217.601V217.611C291.398 217.897 291.629 218.127 291.915 218.127H299.511Z" fill="#06C755"/>
<path d="M271.413 218.127C271.699 218.127 271.93 217.897 271.93 217.611V215.692C271.93 215.409 271.697 215.176 271.413 215.176H266.252V205.81C266.252 205.527 266.019 205.294 265.736 205.294H263.817C263.531 205.294 263.301 205.524 263.301 205.81V217.601V217.611C263.301 217.897 263.531 218.127 263.817 218.127H271.413Z" fill="#06C755"/>
<path d="M275.983 205.294H274.067C273.782 205.294 273.551 205.525 273.551 205.81V217.608C273.551 217.893 273.782 218.125 274.067 218.125H275.983C276.268 218.125 276.5 217.893 276.5 217.608V205.81C276.5 205.525 276.268 205.294 275.983 205.294Z" fill="#06C755"/>
<path d="M289.04 205.294H287.121C286.835 205.294 286.605 205.524 286.605 205.81V212.819L281.205 205.529C281.193 205.511 281.178 205.494 281.165 205.476C281.165 205.476 281.165 205.476 281.162 205.473C281.152 205.463 281.142 205.451 281.132 205.44C281.129 205.438 281.124 205.435 281.122 205.433C281.112 205.425 281.104 205.418 281.094 205.41C281.089 205.408 281.084 205.403 281.079 205.4C281.071 205.392 281.061 205.387 281.051 205.382C281.046 205.38 281.041 205.375 281.036 205.372C281.026 205.367 281.018 205.362 281.008 205.357C281.003 205.354 280.998 205.352 280.993 205.349C280.983 205.344 280.973 205.339 280.962 205.337C280.957 205.337 280.952 205.332 280.945 205.332C280.935 205.329 280.924 205.324 280.914 205.322C280.909 205.322 280.902 205.319 280.897 205.316C280.887 205.316 280.876 205.311 280.866 205.309C280.859 205.309 280.851 205.309 280.843 205.306C280.833 205.306 280.826 205.304 280.816 205.304C280.805 205.304 280.798 205.304 280.788 205.304C280.783 205.304 280.775 205.304 280.77 205.304H278.864C278.578 205.304 278.348 205.534 278.348 205.82V217.621C278.348 217.907 278.578 218.137 278.864 218.137H280.783C281.069 218.137 281.299 217.907 281.299 217.621V210.614L286.703 217.914C286.741 217.968 286.787 218.011 286.837 218.044C286.837 218.044 286.843 218.046 286.843 218.049C286.853 218.056 286.863 218.061 286.875 218.069C286.881 218.071 286.886 218.074 286.891 218.076C286.898 218.082 286.908 218.084 286.916 218.089C286.924 218.094 286.934 218.097 286.941 218.099C286.946 218.099 286.951 218.104 286.956 218.104C286.969 218.109 286.979 218.112 286.992 218.114C286.992 218.114 286.997 218.114 286.999 218.114C287.043 218.125 287.088 218.132 287.134 218.132H289.04C289.326 218.132 289.556 217.902 289.556 217.616V205.815C289.556 205.529 289.326 205.299 289.04 205.299V205.294Z" fill="#06C755"/>
</g>
</g>
<defs>
<clipPath id="clip0_1635_3202">
<rect width="81" height="81" fill="white" transform="translate(241 173)"/>
</clipPath>
<clipPath id="clip1_1635_3202">
<rect width="81" height="81" fill="white" transform="translate(241 173)"/>
</clipPath>
</defs>
</svg>
