<svg width="31" height="29" viewBox="0 0 31 29" fill="none" xmlns="http://www.w3.org/2000/svg">
<path d="M30.5052 12.1894C30.5052 5.4675 23.7664 0 15.485 0C7.20359 0 0.464844 5.46891 0.464844 12.1894C0.464844 18.2152 5.80859 23.2608 13.0269 24.2156C13.5163 24.3211 14.1814 24.5377 14.3502 24.9567C14.502 25.3364 14.4486 25.9313 14.3994 26.3152C14.3994 26.3152 14.2236 27.3755 14.1856 27.6005C14.1195 27.9802 13.8833 29.0855 15.4864 28.4105C17.0895 27.7355 24.1363 23.317 27.2877 19.6903C29.4645 17.3025 30.508 14.8809 30.508 12.1908L30.5052 12.1894Z" fill="white"/>
<path d="M25.507 16.0706C25.6659 16.0706 25.7939 15.9426 25.7939 15.7837V14.7178C25.7939 14.5603 25.6645 14.4309 25.507 14.4309H22.6397V13.3242H25.507C25.6659 13.3242 25.7939 13.1962 25.7939 13.0373V11.9728C25.7939 11.8153 25.6645 11.6859 25.507 11.6859H22.6397V10.5792H25.507C25.6659 10.5792 25.7939 10.4512 25.7939 10.2923V9.22779C25.7939 9.07029 25.6645 8.94092 25.507 8.94092H21.2869C21.128 8.94092 21 9.06889 21 9.22779V9.23342V15.7781V15.7837C21 15.9426 21.128 16.0706 21.2869 16.0706H25.507Z" fill="#06C755"/>
<path d="M9.89766 16.0706C10.0566 16.0706 10.1845 15.9426 10.1845 15.7837V14.7178C10.1845 14.5603 10.0552 14.4309 9.89766 14.4309H7.03031V9.22779C7.03031 9.07029 6.90094 8.94092 6.74344 8.94092H5.6775C5.51859 8.94092 5.39062 9.06889 5.39062 9.22779V15.7781V15.7837C5.39062 15.9426 5.51859 16.0706 5.6775 16.0706H9.89766Z" fill="#06C755"/>
<path d="M12.4373 8.94092H11.3728C11.2144 8.94092 11.0859 9.06936 11.0859 9.22779V15.7823C11.0859 15.9408 11.2144 16.0692 11.3728 16.0692H12.4373C12.5958 16.0692 12.7242 15.9408 12.7242 15.7823V9.22779C12.7242 9.06936 12.5958 8.94092 12.4373 8.94092Z" fill="#06C755"/>
<path d="M19.69 8.94092H18.6241C18.4652 8.94092 18.3372 9.06889 18.3372 9.22779V13.1217L15.3377 9.0717C15.3306 9.06185 15.3222 9.05201 15.3152 9.04217C15.3152 9.04217 15.3152 9.04217 15.3137 9.04076C15.3081 9.03514 15.3025 9.02811 15.2969 9.02248C15.2955 9.02107 15.2927 9.01967 15.2913 9.01826C15.2856 9.01404 15.2814 9.00982 15.2758 9.0056C15.273 9.0042 15.2702 9.00139 15.2673 8.99998C15.2631 8.99576 15.2575 8.99295 15.2519 8.99014C15.2491 8.98873 15.2462 8.98592 15.2434 8.98451C15.2378 8.9817 15.2336 8.97889 15.228 8.97607C15.2252 8.97467 15.2223 8.97326 15.2195 8.97186C15.2139 8.96904 15.2083 8.96623 15.2027 8.96482C15.1998 8.96482 15.197 8.96201 15.1928 8.96201C15.1872 8.96061 15.1816 8.95779 15.1759 8.95639C15.1731 8.95639 15.1689 8.95498 15.1661 8.95357C15.1605 8.95357 15.1548 8.95076 15.1492 8.94936C15.145 8.94936 15.1408 8.94935 15.1366 8.94795C15.1309 8.94795 15.1267 8.94654 15.1211 8.94654C15.1155 8.94654 15.1112 8.94654 15.1056 8.94654C15.1028 8.94654 15.0986 8.94654 15.0958 8.94654H14.0369C13.878 8.94654 13.75 9.07451 13.75 9.23342V15.7894C13.75 15.9483 13.878 16.0762 14.0369 16.0762H15.1028C15.2617 16.0762 15.3897 15.9483 15.3897 15.7894V11.8969L18.392 15.9525C18.4131 15.982 18.4384 16.0059 18.4666 16.0242C18.4666 16.0242 18.4694 16.0256 18.4694 16.027C18.475 16.0312 18.4806 16.034 18.4877 16.0383C18.4905 16.0397 18.4933 16.0411 18.4961 16.0425C18.5003 16.0453 18.5059 16.0467 18.5102 16.0495C18.5144 16.0523 18.52 16.0537 18.5242 16.0551C18.527 16.0551 18.5298 16.0579 18.5327 16.0579C18.5397 16.0608 18.5453 16.0622 18.5523 16.0636C18.5523 16.0636 18.5552 16.0636 18.5566 16.0636C18.5805 16.0692 18.6058 16.0734 18.6311 16.0734H19.69C19.8489 16.0734 19.9769 15.9454 19.9769 15.7865V9.23061C19.9769 9.0717 19.8489 8.94373 19.69 8.94373V8.94092Z" fill="#06C755"/>
</svg>
